<?xml version="1.0" standalone="no"?>
<!-- Generator: Adobe Fireworks 10, Export SVG Extension by Aaron Beall (http://fireworks.abeall.com) . Version: 0.6.1  -->
<!DOCTYPE svg PUBLIC "-//W3C//DTD SVG 1.1//EN" "http://www.w3.org/Graphics/SVG/1.1/DTD/svg11.dtd">
<svg id="Untitled-P%E1gina%201" viewBox="0 0 304 77" style="background-color:#ffffff00" version="1.1"
	xmlns="http://www.w3.org/2000/svg" xmlns:xlink="http://www.w3.org/1999/xlink" xml:space="preserve"
	x="0px" y="0px" width="304px" height="77px"
>
	<g id="Capa%201">
		<g>
			<path d="M 139.3851 26.546 C 139.543 25.7056 139.725 24.896 139.9317 24.1158 C 140.816 20.6997 142.0912 17.8459 143.757 15.5963 C 145.4023 13.3467 147.4384 11.6386 149.824 10.5138 C 152.2097 9.389 154.8833 8.8266 157.8654 8.8266 C 160.3333 8.8266 162.5956 9.2015 164.6522 9.9514 C 166.7089 10.7012 168.4569 11.8261 169.9171 13.3676 C 171.3773 14.9089 172.5291 16.8461 173.3517 19.2208 C 174.049 21.2336 174.4492 23.5437 174.5555 26.1554 L 184.062 26.1554 C 183.9351 22.2541 183.2869 18.8145 182.1128 15.8047 C 180.7966 12.451 178.9457 9.6597 176.6011 7.4518 C 174.2566 5.2438 171.4802 3.5773 168.2718 2.4734 C 165.0635 1.3902 161.6084 0.8278 157.8654 0.8278 C 153.3409 0.8278 149.2893 1.6194 145.7108 3.1816 C 142.1323 4.7647 139.0885 7.1185 136.6 10.2847 C 134.1115 13.4509 132.1989 17.4085 130.8621 22.1578 C 130.47 23.5508 130.1384 25.0132 129.8625 26.546 L 139.3851 26.546 ZM 157.3101 76.8158 C 158.7266 76.8158 160.0945 76.7279 161.4094 76.5492 C 164.2042 76.1965 166.7708 75.4973 169.1151 74.462 C 172.6525 72.8998 175.614 70.5251 178.0201 67.359 C 180.447 64.1928 182.2774 60.256 183.5319 55.5067 C 183.7208 54.7947 183.6774 53.9813 183.4628 53.1129 C 183.8602 51.7219 184.0872 50.8199 184.0872 50.8199 L 184.0872 35.8822 L 180.3235 35.8797 L 180.3235 35.653 L 168.4775 35.653 L 168.4775 43.6519 L 174.5917 43.6519 L 174.5857 46.5081 C 174.5857 50.4727 174.1429 54.2921 173.2685 57.4922 C 172.5994 59.2191 171.7922 60.7449 170.8426 62.0682 C 167.6967 66.4799 163.1848 68.7313 157.3101 68.8171 L 156.9605 68.8171 C 151.0842 68.7321 146.5745 66.4808 143.428 62.0682 C 141.7924 59.7891 140.5761 56.9125 139.7716 53.4362 L 130.2437 53.4362 C 130.3965 54.1434 130.5599 54.8332 130.7386 55.5067 C 131.9933 60.256 133.8237 64.1928 136.2504 67.359 C 138.6566 70.5251 141.6182 72.8998 145.1556 74.462 C 148.5869 75.9775 152.5021 76.7698 156.9012 76.8158 L 156.9605 76.8158 L 157.3101 76.8158 ZM 69.2271 53.4362 L 69.2254 75.4827 L 78.5213 75.4827 L 78.5189 53.4362 L 69.2271 53.4362 ZM 97.8137 35.7014 L 94.3094 35.7146 L 97.8534 43.4877 L 111.2831 75.4827 L 121.5662 75.4827 L 107.0671 41.9672 C 111.0981 40.5924 114.2447 38.2803 116.4864 35.0308 C 118.728 31.8022 119.8592 27.9694 119.8592 23.5118 C 119.8592 20.5539 119.4067 17.8668 118.5018 15.4505 C 117.5969 13.0342 116.2191 10.9512 114.4092 9.2224 C 112.5994 7.4935 110.3371 6.1395 107.6429 5.1814 C 104.9487 4.2231 101.8433 3.7232 98.3265 3.7232 L 69.2254 3.7232 L 69.2271 26.546 L 78.5189 26.546 L 78.5213 11.4928 L 97.9563 11.4928 C 101.9255 11.4928 104.9487 12.5551 107.0465 14.6799 C 109.1443 16.8045 110.1931 19.7206 110.1931 23.4285 C 110.1931 25.2615 109.8846 26.9487 109.3088 28.4693 C 108.7329 29.9899 107.9103 31.2814 106.8409 32.3646 C 105.7714 33.4477 104.4963 34.2601 102.9951 34.8433 C 101.4731 35.4266 99.6647 35.7014 97.8137 35.7014 ZM 5.7413 53.4362 C 6.9142 59.1384 8.8701 63.7856 11.6198 67.3799 C 16.4116 73.6705 23.4864 76.8158 32.8645 76.8158 C 36.5253 76.8158 39.8981 76.2534 42.9831 75.191 C 46.068 74.1079 48.7209 72.4415 50.9421 70.1918 C 53.1633 67.9422 54.9114 65.1094 56.166 61.6932 C 57.0556 59.2708 57.6338 56.514 57.8956 53.4362 L 48.6306 53.4362 C 48.4435 55.0886 48.1363 56.605 47.7133 57.9855 C 46.9523 60.4018 45.8829 62.4222 44.5049 64.0262 C 43.1064 65.6301 41.4407 66.8383 39.4663 67.6298 C 37.4919 68.4213 35.2914 68.8171 32.8645 68.8171 C 26.5096 68.8171 21.8 66.5883 18.7357 62.089 C 17.1785 59.8134 16.0219 56.93 15.2585 53.4362 L 5.7413 53.4362 ZM 11.6198 10.2847 C 8.5078 14.366 6.4108 19.7876 5.3172 26.546 L 14.8237 26.546 C 15.5462 22.0161 16.8502 18.3647 18.7357 15.5963 C 21.8 11.0971 26.5096 8.8266 32.8645 8.8266 C 35.209 8.8266 37.3685 9.2432 39.3017 10.0555 C 41.235 10.8887 42.9008 12.0969 44.2787 13.7216 C 45.636 15.3464 46.685 17.3877 47.4254 19.8457 C 48.0187 21.8154 48.3732 24.0521 48.491 26.546 L 58.019 26.546 C 57.8672 22.6745 57.2468 19.2628 56.166 16.2837 C 54.9114 12.826 53.1633 9.9722 50.9421 7.6809 C 48.7209 5.3896 46.068 3.6815 42.9831 2.5359 C 39.8981 1.4111 36.5253 0.8278 32.8645 0.8278 C 23.4864 0.8278 16.4116 3.994 11.6198 10.2847 Z" fill="#00688c"/>
			<rect x="0" y="30.1567" width="19.7435" height="19.9968" fill="#ff3cac"/>
			<rect x="63.1791" y="30.1567" width="19.7435" height="19.9968" fill="#ffd50b"/>
			<rect x="125.042" y="30.1567" width="19.7435" height="19.9968" fill="#08bebe"/>
		</g>
		<g>
			<path d="M 210.1459 24.9024 C 212.249 24.9024 213.9186 24.2988 215.1548 23.0579 C 216.3909 21.8171 217.0171 19.9893 217.0171 17.5411 L 214.5126 17.5411 C 214.5126 19.2515 214.1113 20.5594 213.3407 21.4314 C 212.5701 22.3201 211.4944 22.7561 210.1459 22.7561 C 208.4121 22.7561 207.1277 22.1524 206.293 20.9451 C 205.4421 19.7378 205.0247 17.8933 205.0247 15.4451 L 205.0247 13.9695 C 205.0247 11.5213 205.4421 9.6936 206.293 8.4863 C 207.1277 7.2789 208.4121 6.6585 210.1459 6.6585 C 211.4623 6.6585 212.5059 7.1113 213.2765 8 C 214.0471 8.8887 214.4324 10.1966 214.4324 11.907 L 217.0171 11.907 C 217.0171 9.5091 216.3909 7.6814 215.1387 6.407 C 213.8865 5.1494 212.233 4.5122 210.1459 4.5122 C 204.9604 4.5122 202.3758 7.9161 202.3758 14.7073 C 202.3758 21.5152 204.9604 24.9024 210.1459 24.9024 L 210.1459 24.9024 Z" fill="#00668c"/>
			<path d="M 225.1381 24.9024 C 226.6151 24.9024 227.803 24.3994 228.7181 23.3765 C 229.6172 22.3537 230.0828 20.9619 230.0828 19.2012 L 227.7549 19.2012 C 227.7549 20.2912 227.5141 21.1631 227.0485 21.8003 C 226.5669 22.4375 225.9568 22.7561 225.1863 22.7561 C 224.0625 22.7561 223.2277 22.3369 222.6979 21.4649 C 222.1681 20.593 221.8952 19.2347 221.8792 17.3902 L 230.0828 17.3902 L 230.0828 15.8979 C 230.0828 13.4161 229.6653 11.6052 228.8626 10.4817 C 228.0439 9.375 226.7917 8.8049 225.106 8.8049 C 223.1795 8.8049 221.7507 9.4588 220.8196 10.7668 C 219.8724 12.0747 219.4068 14.1036 219.4068 16.8536 C 219.4068 19.6707 219.8724 21.7164 220.8356 22.9908 C 221.7828 24.2652 223.2116 24.9024 225.1381 24.9024 L 225.1381 24.9024 ZM 221.9113 15.2439 C 222.0076 13.785 222.2965 12.7119 222.8102 12.0076 C 223.324 11.3033 224.0786 10.9512 225.106 10.9512 C 225.9247 10.9512 226.5508 11.3201 226.9683 12.0579 C 227.3857 12.7957 227.6104 13.8521 227.6104 15.2439 L 221.9113 15.2439 L 221.9113 15.2439 Z" fill="#00668c"/>
			<path d="M 233.055 24.9024 L 235.3989 24.9024 L 235.3989 15.2774 C 235.3989 13.9695 235.6718 12.9131 236.2177 12.125 C 236.7635 11.3536 237.4377 10.9512 238.2244 10.9512 C 238.9147 10.9512 239.4445 11.1692 239.8137 11.5716 C 240.1669 11.9741 240.3596 12.6951 240.3596 13.718 L 240.3596 24.9024 L 242.7195 24.9024 L 242.7195 13.5671 C 242.7195 11.8902 242.3984 10.6829 241.7563 9.9283 C 241.1141 9.1905 240.183 8.8049 238.9789 8.8049 C 237.3254 8.8049 236.1053 9.5259 235.3186 10.9512 L 235.142 10.9512 L 234.837 8.8049 L 233.055 8.8049 L 233.055 24.9024 L 233.055 24.9024 Z" fill="#00668c"/>
			<path d="M 248.8384 24.9024 C 249.1274 24.9024 249.4163 24.8689 249.7374 24.785 C 250.0585 24.718 250.3154 24.6174 250.5401 24.5 L 250.5401 22.7561 L 249.8498 22.7561 C 248.9507 22.7561 248.5012 22.2866 248.5012 21.314 L 248.5012 10.9512 L 250.5401 10.9512 L 250.5401 8.8049 L 248.5012 8.8049 L 248.5012 4.5122 L 246.655 4.5122 L 246.1413 8.8049 L 244.8409 8.8049 L 244.8409 10.9512 L 246.1413 10.9512 L 246.1413 21.2637 C 246.1413 22.3033 246.35 23.1753 246.7674 23.8628 C 247.1848 24.5671 247.8751 24.9024 248.8384 24.9024 L 248.8384 24.9024 Z" fill="#00668c"/>
			<path d="M 252.7326 24.9024 L 255.0765 24.9024 L 255.0765 14.8414 C 255.0765 13.4832 255.3334 12.4939 255.8632 11.8735 C 256.3929 11.2698 257.0672 10.9512 257.902 10.9512 L 258.6726 10.9512 L 258.6726 8.9893 C 258.6084 8.9893 258.48 8.9558 258.2712 8.8887 C 258.0626 8.8384 257.8218 8.8049 257.5649 8.8049 C 256.9067 8.8049 256.3608 8.9893 255.9434 9.3247 C 255.526 9.6768 255.205 10.1128 254.9962 10.6326 L 254.8196 10.6326 L 254.5146 8.8049 L 252.7326 8.8049 L 252.7326 24.9024 L 252.7326 24.9024 Z" fill="#00668c"/>
			<path d="M 265.4186 24.9024 C 267.1846 24.9024 268.5331 24.2485 269.4482 22.9238 C 270.3472 21.6158 270.8128 19.5869 270.8128 16.8536 C 270.8128 14.1372 270.3472 12.1082 269.4482 10.7835 C 268.5331 9.4756 267.1846 8.8049 265.4186 8.8049 C 263.6206 8.8049 262.272 9.4756 261.373 10.7835 C 260.4579 12.1082 260.0084 14.1372 260.0084 16.8536 C 260.0084 19.5869 260.4579 21.6158 261.373 22.9238 C 262.272 24.2485 263.6206 24.9024 265.4186 24.9024 L 265.4186 24.9024 ZM 265.4186 22.7561 C 263.46 22.7561 262.4808 20.9787 262.4808 17.407 L 262.4808 16.3003 C 262.4808 12.7454 263.46 10.9512 265.4186 10.9512 C 267.3612 10.9512 268.3405 12.7454 268.3405 16.3003 L 268.3405 17.407 C 268.3405 20.9787 267.3612 22.7561 265.4186 22.7561 L 265.4186 22.7561 Z" fill="#00668c"/>
			<path d="M 284.3738 24.9024 C 285.0481 24.9024 285.6902 24.7347 286.2682 24.3658 C 286.8461 23.9969 287.3117 23.4604 287.681 22.7561 L 287.8254 22.7561 L 288.1465 24.9024 L 289.9285 24.9024 L 289.9285 3.439 L 287.5686 3.439 L 287.5686 10.6326 L 287.4241 10.6326 C 287.1672 10.0625 286.7498 9.6265 286.1719 9.2911 C 285.5939 8.9725 284.9357 8.8049 284.1972 8.8049 C 282.8487 8.8049 281.7731 9.4924 280.9382 10.8338 C 280.1035 12.1753 279.686 14.1707 279.686 16.8201 C 279.686 19.5701 280.0874 21.5991 280.9061 22.9238 C 281.7089 24.2485 282.8647 24.9024 284.3738 24.9024 L 284.3738 24.9024 ZM 284.8555 22.7561 C 283.9243 22.7561 283.2501 22.3369 282.8166 21.4985 C 282.3671 20.66 282.1584 19.3018 282.1584 17.407 L 282.1584 16.3003 C 282.1584 14.4222 282.3671 13.0472 282.8166 12.2088 C 283.2501 11.3704 283.9243 10.9512 284.8555 10.9512 C 286.6535 10.9512 287.5686 12.7789 287.5686 16.4177 L 287.5686 17.407 C 287.5686 20.9787 286.6535 22.7561 284.8555 22.7561 L 284.8555 22.7561 Z" fill="#00668c"/>
			<path d="M 298.5839 24.9024 C 300.0609 24.9024 301.2489 24.3994 302.1639 23.3765 C 303.063 22.3537 303.5286 20.9619 303.5286 19.2012 L 301.2007 19.2012 C 301.2007 20.2912 300.9599 21.1631 300.4943 21.8003 C 300.0128 22.4375 299.4026 22.7561 298.6321 22.7561 C 297.5083 22.7561 296.6735 22.3369 296.1437 21.4649 C 295.6139 20.593 295.341 19.2347 295.325 17.3902 L 303.5286 17.3902 L 303.5286 15.8979 C 303.5286 13.4161 303.1111 11.6052 302.3085 10.4817 C 301.4897 9.375 300.2375 8.8049 298.5518 8.8049 C 296.6253 8.8049 295.1965 9.4588 294.2654 10.7668 C 293.3182 12.0747 292.8526 14.1036 292.8526 16.8536 C 292.8526 19.6707 293.3182 21.7164 294.2814 22.9908 C 295.2286 24.2652 296.6574 24.9024 298.5839 24.9024 L 298.5839 24.9024 ZM 295.3571 15.2439 C 295.4534 13.785 295.7424 12.7119 296.2561 12.0076 C 296.7698 11.3033 297.5244 10.9512 298.5518 10.9512 C 299.3705 10.9512 299.9967 11.3201 300.4141 12.0579 C 300.8315 12.7957 301.0562 13.8521 301.0562 15.2439 L 295.3571 15.2439 L 295.3571 15.2439 Z" fill="#00668c"/>
			<path d="M 203.1785 48.9415 L 205.715 48.9415 L 205.715 39.2829 L 211.0129 39.2829 L 214.6571 48.9415 L 217.4826 48.9415 L 213.5173 38.847 C 214.625 38.4948 215.4919 37.8744 216.102 37.0025 C 216.712 36.1305 217.0171 35.0909 217.0171 33.8835 C 217.0171 32.257 216.5034 30.9659 215.4919 29.9933 C 214.4645 29.0375 213.0196 28.5512 211.1252 28.5512 L 203.1785 28.5512 L 203.1785 48.9415 L 203.1785 48.9415 ZM 205.715 37.1366 L 205.715 30.6976 L 211.045 30.6976 C 212.1046 30.6976 212.9393 30.9826 213.5173 31.536 C 214.0952 32.1061 214.3842 32.8775 214.3842 33.8668 C 214.3842 34.8561 214.0631 35.6442 213.4531 36.2479 C 212.843 36.8515 212.0403 37.1366 211.045 37.1366 L 205.715 37.1366 L 205.715 37.1366 Z" fill="#00668c"/>
			<path d="M 225.5696 48.9415 C 227.0466 48.9415 228.2346 48.4384 229.1497 47.4156 C 230.0487 46.3927 230.5143 45.0009 230.5143 43.2403 L 228.1864 43.2403 C 228.1864 44.3302 227.9456 45.2021 227.48 45.8393 C 226.9984 46.4765 226.3884 46.7951 225.6178 46.7951 C 224.494 46.7951 223.6592 46.3759 223.1294 45.504 C 222.5996 44.632 222.3267 43.2738 222.3106 41.4293 L 230.5143 41.4293 L 230.5143 39.9369 C 230.5143 37.4552 230.0969 35.6442 229.2941 34.5208 C 228.4754 33.414 227.2232 32.8439 225.5375 32.8439 C 223.611 32.8439 222.1822 33.4979 221.2511 34.8058 C 220.3039 36.1137 219.8383 38.1427 219.8383 40.8927 C 219.8383 43.7098 220.3039 45.7555 221.2672 47.0299 C 222.2143 48.3043 223.6431 48.9415 225.5696 48.9415 L 225.5696 48.9415 ZM 222.3428 39.2829 C 222.4391 37.8241 222.728 36.7509 223.2418 36.0467 C 223.7555 35.3424 224.5101 34.9903 225.5375 34.9903 C 226.3563 34.9903 226.9824 35.3592 227.3998 36.097 C 227.8172 36.8348 228.0419 37.8912 228.0419 39.2829 L 222.3428 39.2829 L 222.3428 39.2829 Z" fill="#00668c"/>
			<path d="M 238.3972 48.9415 C 239.9705 48.9415 241.1263 48.3714 241.897 47.2311 C 242.6515 46.0909 243.0368 44.632 243.0368 42.8714 L 240.6929 42.8714 C 240.6929 44.2128 240.5163 45.2021 240.1631 45.8393 C 239.8099 46.4765 239.2159 46.7951 238.3972 46.7951 C 237.45 46.7951 236.7596 46.3592 236.3422 45.4704 C 235.9088 44.5817 235.7001 43.2403 235.7001 41.4461 L 235.7001 40.3393 C 235.7001 38.5619 235.9088 37.2204 236.3583 36.3317 C 236.7917 35.443 237.466 34.9903 238.3972 34.9903 C 239.2159 34.9903 239.7778 35.3089 240.0989 35.9125 C 240.42 36.5329 240.5805 37.5223 240.5805 38.8973 L 243.0368 38.8973 C 243.0368 36.8851 242.6675 35.3759 241.9291 34.3698 C 241.1906 33.3637 240.0026 32.8439 238.3972 32.8439 C 236.6312 32.8439 235.3148 33.4979 234.48 34.789 C 233.6451 36.097 233.2278 38.1259 233.2278 40.8927 C 233.2278 43.6762 233.6291 45.7052 234.4639 46.9964 C 235.2988 48.3043 236.5991 48.9415 238.3972 48.9415 L 238.3972 48.9415 Z" fill="#00668c"/>
			<path d="M 249.869 48.9415 C 251.5226 48.9415 252.7427 48.2372 253.5294 46.7951 L 253.7059 46.7951 L 254.027 48.9415 L 255.809 48.9415 L 255.809 32.8439 L 253.4491 32.8439 L 253.4491 42.4689 C 253.4491 43.7936 253.1761 44.85 252.6303 45.6214 C 252.0845 46.4095 251.4102 46.7951 250.6236 46.7951 C 249.9332 46.7951 249.4034 46.5939 249.0342 46.1915 C 248.665 45.789 248.4884 45.068 248.4884 44.0284 L 248.4884 32.8439 L 246.1445 32.8439 L 246.1445 44.1793 C 246.1445 45.8561 246.4656 47.0802 247.1077 47.818 C 247.7499 48.5726 248.665 48.9415 249.869 48.9415 L 249.869 48.9415 Z" fill="#00668c"/>
			<path d="M 259.6945 48.9415 L 262.0383 48.9415 L 262.0383 38.8805 C 262.0383 37.5223 262.2952 36.5329 262.825 35.9125 C 263.3547 35.3089 264.0291 34.9903 264.8638 34.9903 L 265.6344 34.9903 L 265.6344 33.0284 C 265.5702 33.0284 265.4418 32.9948 265.2331 32.9278 C 265.0244 32.8775 264.7836 32.8439 264.5267 32.8439 C 263.8685 32.8439 263.3226 33.0284 262.9052 33.3637 C 262.4879 33.7159 262.1667 34.1518 261.9581 34.6717 L 261.7814 34.6717 L 261.4764 32.8439 L 259.6945 32.8439 L 259.6945 48.9415 L 259.6945 48.9415 Z" fill="#00668c"/>
			<path d="M 272.0574 48.9415 C 273.5344 48.9415 274.7064 48.5558 275.5732 47.7677 C 276.4402 46.9796 276.8897 45.789 276.8897 44.2128 C 276.8897 43.2067 276.681 42.4018 276.2957 41.7982 C 275.9104 41.1945 275.4288 40.7418 274.8829 40.44 C 274.321 40.1381 273.6147 39.8363 272.7477 39.5177 C 271.8005 39.2159 271.1102 38.8973 270.6607 38.5787 C 270.2112 38.2601 269.9865 37.757 269.9865 37.0863 C 269.9865 36.5497 270.1309 36.0802 270.436 35.6442 C 270.741 35.2083 271.2708 34.9903 272.0253 34.9903 C 272.7638 34.9903 273.3096 35.225 273.6307 35.6778 C 273.9518 36.1305 274.1284 36.6839 274.1284 37.3546 L 274.1284 37.6229 L 276.5686 37.6229 L 276.6007 37.0695 C 276.6007 35.879 276.2155 34.8729 275.4448 34.068 C 274.6743 33.2631 273.6147 32.8439 272.2661 32.8439 C 270.8213 32.8439 269.6653 33.2464 268.8145 34.0345 C 267.9636 34.8226 267.5463 35.879 267.5463 37.2204 C 267.5463 38.1595 267.7228 38.914 268.0921 39.4842 C 268.4453 40.0543 268.8948 40.4903 269.4085 40.7921 C 269.9222 41.0939 270.6125 41.379 271.4474 41.664 C 272.1377 41.9156 272.6835 42.1503 273.0688 42.3515 C 273.4541 42.5528 273.7752 42.8378 274.0482 43.1732 C 274.305 43.5253 274.4495 43.9781 274.4495 44.5146 C 274.4495 45.2525 274.2247 45.8058 273.7913 46.2083 C 273.3578 46.6107 272.812 46.7951 272.1698 46.7951 C 271.4313 46.7951 270.8373 46.5771 270.3878 46.1244 C 269.9222 45.6717 269.6975 44.9842 269.6975 44.0787 L 269.6975 43.7936 L 267.2252 43.7936 C 267.1931 43.9781 267.1931 44.1793 267.1931 44.414 C 267.1931 45.6884 267.5944 46.7616 268.3971 47.6336 C 269.1998 48.5055 269.6172 48.9415 269.6172 48.9415 C 269.6172 48.9415 270.4199 48.9415 272.0574 48.9415 L 272.0574 48.9415 Z" fill="#00668c"/>
			<path d="M 285.0385 48.9415 C 286.8044 48.9415 288.153 48.2875 289.068 46.9628 C 289.967 45.6549 290.4326 43.6259 290.4326 40.8927 C 290.4326 38.1762 289.967 36.1473 289.068 34.8226 C 288.153 33.5146 286.8044 32.8439 285.0385 32.8439 C 283.2404 32.8439 281.8918 33.5146 280.9928 34.8226 C 280.0778 36.1473 279.6282 38.1762 279.6282 40.8927 C 279.6282 43.6259 280.0778 45.6549 280.9928 46.9628 C 281.8918 48.2875 283.2404 48.9415 285.0385 48.9415 L 285.0385 48.9415 ZM 285.0385 46.7951 C 283.0798 46.7951 282.1005 45.0177 282.1005 41.4461 L 282.1005 40.3393 C 282.1005 36.7845 283.0798 34.9903 285.0385 34.9903 C 286.981 34.9903 287.9603 36.7845 287.9603 40.3393 L 287.9603 41.4461 C 287.9603 45.0177 286.981 46.7951 285.0385 46.7951 L 285.0385 46.7951 Z" fill="#00668c"/>
			<path d="M 297.8338 48.9415 C 299.3108 48.9415 300.4827 48.5558 301.3497 47.7677 C 302.2166 46.9796 302.6661 45.789 302.6661 44.2128 C 302.6661 43.2067 302.4574 42.4018 302.0721 41.7982 C 301.6868 41.1945 301.2052 40.7418 300.6594 40.44 C 300.0975 40.1381 299.3911 39.8363 298.5242 39.5177 C 297.577 39.2159 296.8867 38.8973 296.4371 38.5787 C 295.9876 38.2601 295.7629 37.757 295.7629 37.0863 C 295.7629 36.5497 295.9073 36.0802 296.2123 35.6442 C 296.5174 35.2083 297.0472 34.9903 297.8017 34.9903 C 298.5402 34.9903 299.0861 35.225 299.4071 35.6778 C 299.7282 36.1305 299.9048 36.6839 299.9048 37.3546 L 299.9048 37.6229 L 302.345 37.6229 L 302.3771 37.0695 C 302.3771 35.879 301.9918 34.8729 301.2213 34.068 C 300.4506 33.2631 299.3911 32.8439 298.0425 32.8439 C 296.5977 32.8439 295.4418 33.2464 294.5909 34.0345 C 293.7401 34.8226 293.3226 35.879 293.3226 37.2204 C 293.3226 38.1595 293.4993 38.914 293.8685 39.4842 C 294.2217 40.0543 294.6712 40.4903 295.1849 40.7921 C 295.6987 41.0939 296.389 41.379 297.2238 41.664 C 297.9141 41.9156 298.46 42.1503 298.8452 42.3515 C 299.2305 42.5528 299.5516 42.8378 299.8245 43.1732 C 300.0814 43.5253 300.2259 43.9781 300.2259 44.5146 C 300.2259 45.2525 300.0011 45.8058 299.5677 46.2083 C 299.1342 46.6107 298.5884 46.7951 297.9462 46.7951 C 297.2077 46.7951 296.6137 46.5771 296.1642 46.1244 C 295.6987 45.6717 295.4739 44.9842 295.4739 44.0787 L 295.4739 43.7936 L 293.0016 43.7936 C 292.9695 43.9781 292.9695 44.1793 292.9695 44.414 C 292.9695 45.6884 293.3708 46.7616 294.1735 47.6336 C 294.9762 48.5055 295.3936 48.9415 295.3936 48.9415 C 295.3936 48.9415 296.1963 48.9415 297.8338 48.9415 L 297.8338 48.9415 Z" fill="#00668c"/>
			<path d="M 209.9533 64.3951 L 215.0745 64.3951 L 215.0745 64.8814 C 215.0745 66.8936 214.6892 68.4027 213.9347 69.3753 C 213.1641 70.3479 211.9761 70.8341 210.3546 70.8341 C 208.685 70.8341 207.4007 70.2305 206.5338 69.0064 C 205.6669 67.7823 205.2334 65.9546 205.2334 63.5231 L 205.2334 62.0475 C 205.2334 59.6497 205.6829 57.8387 206.614 56.5978 C 207.5291 55.357 208.8295 54.7366 210.4991 54.7366 C 211.9119 54.7366 213.0196 55.139 213.8384 55.9271 C 214.6571 56.7152 215.0745 57.9058 215.0745 59.4988 L 217.6592 59.4988 C 217.6592 57.2518 217.001 55.5414 215.6846 54.3677 C 214.3682 53.1939 212.6343 52.5902 210.4991 52.5902 C 207.9786 52.5902 206.0361 53.4622 204.6555 55.1725 C 203.2748 56.8997 202.5845 59.4317 202.5845 62.7854 C 202.5845 66.1725 203.2427 68.7213 204.5752 70.4317 C 205.9077 72.1421 207.8342 72.9805 210.3546 72.9805 C 212.5861 72.9805 214.2879 72.2091 215.4438 70.6329 L 215.9896 72.9805 L 217.6592 72.9805 L 217.6592 62.2488 L 209.9533 62.2488 L 209.9533 64.3951 L 209.9533 64.3951 Z" fill="#00668c"/>
			<path d="M 226.0297 72.9805 C 227.5067 72.9805 228.6946 72.4774 229.6097 71.4546 C 230.5087 70.4317 230.9743 69.0399 230.9743 67.2793 L 228.6465 67.2793 C 228.6465 68.3692 228.4056 69.2411 227.9401 69.8783 C 227.4585 70.5155 226.8484 70.8341 226.0778 70.8341 C 224.954 70.8341 224.1192 70.4149 223.5894 69.543 C 223.0596 68.671 222.7867 67.3128 222.7707 65.4683 L 230.9743 65.4683 L 230.9743 63.9759 C 230.9743 61.4942 230.5569 59.6832 229.7542 58.5597 C 228.9354 57.453 227.6832 56.8829 225.9976 56.8829 C 224.071 56.8829 222.6423 57.5369 221.7111 58.8448 C 220.7639 60.1527 220.2983 62.1817 220.2983 64.9317 C 220.2983 67.7488 220.7639 69.7945 221.7272 71.0689 C 222.6744 72.3433 224.1031 72.9805 226.0297 72.9805 L 226.0297 72.9805 ZM 222.8028 63.3219 C 222.8991 61.8631 223.1881 60.7899 223.7018 60.0856 C 224.2156 59.3814 224.9701 59.0293 225.9976 59.0293 C 226.8163 59.0293 227.4424 59.3981 227.8598 60.136 C 228.2772 60.8738 228.502 61.9302 228.502 63.3219 L 222.8028 63.3219 L 222.8028 63.3219 Z" fill="#00668c"/>
			<path d="M 233.515 72.9805 L 235.8589 72.9805 L 235.8589 63.3555 C 235.8589 62.0475 236.1318 60.9911 236.6776 60.203 C 237.2234 59.4317 237.8978 59.0293 238.6844 59.0293 C 239.3747 59.0293 239.9045 59.2472 240.2737 59.6497 C 240.627 60.0521 240.8196 60.7731 240.8196 61.796 L 240.8196 72.9805 L 243.1795 72.9805 L 243.1795 61.6451 C 243.1795 59.9683 242.8585 58.761 242.2162 58.0064 C 241.5741 57.2686 240.643 56.8829 239.4389 56.8829 C 237.7853 56.8829 236.5652 57.6039 235.7786 59.0293 L 235.602 59.0293 L 235.297 56.8829 L 233.515 56.8829 L 233.515 72.9805 L 233.515 72.9805 Z" fill="#00668c"/>
			<path d="M 249.6535 55.3402 L 251.6603 55.3402 L 254.7426 51.6009 L 254.7105 51.5171 L 252.1259 51.5171 L 249.6535 55.3402 L 249.6535 55.3402 ZM 251.4034 72.9805 C 252.8804 72.9805 254.0684 72.4774 254.9835 71.4546 C 255.8824 70.4317 256.348 69.0399 256.348 67.2793 L 254.0202 67.2793 C 254.0202 68.3692 253.7794 69.2411 253.3138 69.8783 C 252.8322 70.5155 252.2222 70.8341 251.4515 70.8341 C 250.3278 70.8341 249.493 70.4149 248.9632 69.543 C 248.4334 68.671 248.1605 67.3128 248.1444 65.4683 L 256.348 65.4683 L 256.348 63.9759 C 256.348 61.4942 255.9307 59.6832 255.1279 58.5597 C 254.3092 57.453 253.0569 56.8829 251.3713 56.8829 C 249.4448 56.8829 248.016 57.5369 247.0848 58.8448 C 246.1377 60.1527 245.6721 62.1817 245.6721 64.9317 C 245.6721 67.7488 246.1377 69.7945 247.1009 71.0689 C 248.0481 72.3433 249.4769 72.9805 251.4034 72.9805 L 251.4034 72.9805 ZM 248.1765 63.3219 C 248.2728 61.8631 248.5618 60.7899 249.0756 60.0856 C 249.5893 59.3814 250.3438 59.0293 251.3713 59.0293 C 252.1901 59.0293 252.8162 59.3981 253.2336 60.136 C 253.6509 60.8738 253.8757 61.9302 253.8757 63.3219 L 248.1765 63.3219 L 248.1765 63.3219 Z" fill="#00668c"/>
			<path d="M 261.5538 72.9805 C 261.8427 72.9805 262.1317 72.9469 262.4528 72.8631 C 262.7739 72.796 263.0307 72.6954 263.2555 72.578 L 263.2555 70.8341 L 262.5652 70.8341 C 261.6661 70.8341 261.2166 70.3646 261.2166 69.3921 L 261.2166 59.0293 L 263.2555 59.0293 L 263.2555 56.8829 L 261.2166 56.8829 L 261.2166 52.5902 L 259.3704 52.5902 L 258.8567 56.8829 L 257.5563 56.8829 L 257.5563 59.0293 L 258.8567 59.0293 L 258.8567 69.3418 C 258.8567 70.3814 259.0654 71.2533 259.4828 71.9408 C 259.9002 72.6451 260.5905 72.9805 261.5538 72.9805 L 261.5538 72.9805 Z" fill="#00668c"/>
			<path d="M 264.7275 53.6634 L 267.0875 53.6634 L 267.0875 51.5171 L 264.7275 51.5171 L 264.7275 53.6634 L 264.7275 53.6634 ZM 264.7275 72.9805 L 267.0875 72.9805 L 267.0875 56.8829 L 264.7275 56.8829 L 264.7275 72.9805 L 264.7275 72.9805 Z" fill="#00668c"/>
			<path d="M 274.2997 72.9805 C 275.873 72.9805 277.0289 72.4104 277.7994 71.2701 C 278.554 70.1299 278.9393 68.671 278.9393 66.9104 L 276.5954 66.9104 C 276.5954 68.2518 276.4188 69.2411 276.0656 69.8783 C 275.7124 70.5155 275.1184 70.8341 274.2997 70.8341 C 273.3525 70.8341 272.6622 70.3981 272.2448 69.5094 C 271.8113 68.6207 271.6026 67.2793 271.6026 65.485 L 271.6026 64.3783 C 271.6026 62.6009 271.8113 61.2594 272.2608 60.3707 C 272.6943 59.482 273.3685 59.0293 274.2997 59.0293 C 275.1184 59.0293 275.6803 59.3479 276.0014 59.9515 C 276.3224 60.5719 276.483 61.5613 276.483 62.9363 L 278.9393 62.9363 C 278.9393 60.9241 278.5701 59.4149 277.8315 58.4088 C 277.0931 57.4027 275.9051 56.8829 274.2997 56.8829 C 272.5337 56.8829 271.2173 57.5369 270.3824 58.828 C 269.5477 60.136 269.1302 62.1649 269.1302 64.9317 C 269.1302 67.7152 269.5316 69.7442 270.3664 71.0354 C 271.2012 72.3433 272.5016 72.9805 274.2997 72.9805 L 274.2997 72.9805 Z" fill="#00668c"/>
			<path d="M 286.0162 72.9805 C 287.7822 72.9805 289.1307 72.3265 290.0458 71.0018 C 290.9448 69.6939 291.4104 67.6649 291.4104 64.9317 C 291.4104 62.2152 290.9448 60.1863 290.0458 58.8616 C 289.1307 57.5536 287.7822 56.8829 286.0162 56.8829 C 284.2182 56.8829 282.8696 57.5536 281.9706 58.8616 C 281.0555 60.1863 280.606 62.2152 280.606 64.9317 C 280.606 67.6649 281.0555 69.6939 281.9706 71.0018 C 282.8696 72.3265 284.2182 72.9805 286.0162 72.9805 L 286.0162 72.9805 ZM 286.0162 70.8341 C 284.0576 70.8341 283.0784 69.0567 283.0784 65.485 L 283.0784 64.3783 C 283.0784 60.8235 284.0576 59.0293 286.0162 59.0293 C 287.9588 59.0293 288.938 60.8235 288.938 64.3783 L 288.938 65.485 C 288.938 69.0567 287.9588 70.8341 286.0162 70.8341 L 286.0162 70.8341 Z" fill="#00668c"/>
			<path d="M 297.9486 72.9805 C 299.4255 72.9805 300.5975 72.5948 301.4644 71.8067 C 302.3314 71.0186 302.7809 69.828 302.7809 68.2518 C 302.7809 67.2457 302.5721 66.4408 302.1869 65.8372 C 301.8016 65.2335 301.3199 64.7808 300.7741 64.4789 C 300.2122 64.1771 299.5059 63.8753 298.6389 63.5567 C 297.6917 63.2549 297.0014 62.9363 296.5519 62.6177 C 296.1024 62.2991 295.8776 61.796 295.8776 61.1253 C 295.8776 60.5887 296.0221 60.1192 296.3271 59.6832 C 296.6321 59.2472 297.1619 59.0293 297.9165 59.0293 C 298.655 59.0293 299.2008 59.264 299.5219 59.7168 C 299.843 60.1695 300.0196 60.7229 300.0196 61.3936 L 300.0196 61.6619 L 302.4598 61.6619 L 302.4919 61.1085 C 302.4919 59.918 302.1066 58.9119 301.336 58.107 C 300.5654 57.3021 299.5059 56.8829 298.1573 56.8829 C 296.7124 56.8829 295.5565 57.2853 294.7057 58.0735 C 293.8548 58.8616 293.4374 59.918 293.4374 61.2594 C 293.4374 62.1985 293.614 62.953 293.9832 63.5231 C 294.3364 64.0933 294.7859 64.5293 295.2997 64.8311 C 295.8134 65.1329 296.5037 65.418 297.3386 65.703 C 298.0289 65.9546 298.5747 66.1893 298.96 66.3905 C 299.3453 66.5918 299.6664 66.8768 299.9393 67.2122 C 300.1962 67.5643 300.3406 68.0171 300.3406 68.5536 C 300.3406 69.2914 300.1159 69.8448 299.6824 70.2472 C 299.249 70.6497 298.7031 70.8341 298.061 70.8341 C 297.3225 70.8341 296.7285 70.6161 296.279 70.1634 C 295.8134 69.7106 295.5886 69.0231 295.5886 68.1177 L 295.5886 67.8326 L 293.1163 67.8326 C 293.0842 68.0171 293.0842 68.2183 293.0842 68.453 C 293.0842 69.7274 293.4856 70.8006 294.2883 71.6725 C 295.0909 72.5445 295.5084 72.9805 295.5084 72.9805 C 295.5084 72.9805 296.3111 72.9805 297.9486 72.9805 L 297.9486 72.9805 Z" fill="#00668c"/>
		</g>
	</g>
</svg>