<?xml version="1.0" encoding="utf-8"?>
<!-- Generator: Adobe Illustrator 26.2.1, SVG Export Plug-In . SVG Version: 6.00 Build 0)  -->
<svg version="1.1" id="Untitled-P_x25_E1gina_x25_201"
	 xmlns="http://www.w3.org/2000/svg" xmlns:xlink="http://www.w3.org/1999/xlink" x="0px" y="0px" viewBox="0 0 184.1 77"
	 style="enable-background:new 0 0 184.1 77;" xml:space="preserve">
<style type="text/css">
	.st0{fill:none;}
	.st1{fill:#FFFFFF;}
	.st2{fill:#FF3CAC;}
	.st3{fill:#FFD50B;}
	.st4{fill:#08BEBE;}
</style>
<path class="st0" d="z"/>
<g id="Capa_x25_201">
	<g>
		<path class="st1" d="M139.4,26.5c0.2-0.8,0.3-1.6,0.5-2.4c0.9-3.4,2.2-6.3,3.8-8.5c1.6-2.2,3.7-4,6.1-5.1c2.4-1.1,5.1-1.7,8-1.7
			c2.5,0,4.7,0.4,6.8,1.1c2.1,0.7,3.8,1.9,5.3,3.4c1.5,1.5,2.6,3.5,3.4,5.9c0.7,2,1.1,4.3,1.2,6.9h9.5c-0.1-3.9-0.8-7.3-1.9-10.4
			c-1.3-3.4-3.2-6.1-5.5-8.4c-2.3-2.2-5.1-3.9-8.3-5c-3.2-1.1-6.7-1.6-10.4-1.6c-4.5,0-8.6,0.8-12.2,2.4c-3.6,1.6-6.6,3.9-9.1,7.1
			c-2.5,3.2-4.4,7.1-5.7,11.9c-0.4,1.4-0.7,2.9-1,4.4H139.4z M157.3,76.8c1.4,0,2.8-0.1,4.1-0.3c2.8-0.4,5.4-1.1,7.7-2.1
			c3.5-1.6,6.5-3.9,8.9-7.1c2.4-3.2,4.3-7.1,5.5-11.9c0.2-0.7,0.1-1.5-0.1-2.4c0.4-1.4,0.6-2.3,0.6-2.3V35.9l-3.8,0v-0.2h-11.8v8
			h6.1l0,2.9c0,4-0.4,7.8-1.3,11c-0.7,1.7-1.5,3.3-2.4,4.6c-3.1,4.4-7.7,6.7-13.5,6.7H157c-5.9-0.1-10.4-2.3-13.5-6.7
			c-1.6-2.3-2.9-5.2-3.7-8.6h-9.5c0.2,0.7,0.3,1.4,0.5,2.1c1.3,4.7,3.1,8.7,5.5,11.9c2.4,3.2,5.4,5.5,8.9,7.1
			c3.4,1.5,7.3,2.3,11.7,2.4h0.1H157.3z M69.2,53.4l0,22h9.3l0-22H69.2z M97.8,35.7l-3.5,0l3.5,7.8l13.4,32h10.3L107.1,42
			c4-1.4,7.2-3.7,9.4-6.9c2.2-3.2,3.4-7.1,3.4-11.5c0-3-0.5-5.6-1.4-8.1s-2.3-4.5-4.1-6.2c-1.8-1.7-4.1-3.1-6.8-4
			c-2.7-1-5.8-1.5-9.3-1.5H69.2l0,22.8h9.3l0-15.1H98c4,0,7,1.1,9.1,3.2c2.1,2.1,3.1,5,3.1,8.7c0,1.8-0.3,3.5-0.9,5
			c-0.6,1.5-1.4,2.8-2.5,3.9c-1.1,1.1-2.3,1.9-3.8,2.5C101.5,35.4,99.7,35.7,97.8,35.7z M5.7,53.4c1.2,5.7,3.1,10.3,5.9,13.9
			c4.8,6.3,11.9,9.4,21.2,9.4c3.7,0,7-0.6,10.1-1.6c3.1-1.1,5.7-2.7,8-5c2.2-2.2,4-5.1,5.2-8.5c0.9-2.4,1.5-5.2,1.7-8.3h-9.3
			c-0.2,1.7-0.5,3.2-0.9,4.5c-0.8,2.4-1.8,4.4-3.2,6c-1.4,1.6-3.1,2.8-5,3.6c-2,0.8-4.2,1.2-6.6,1.2c-6.4,0-11.1-2.2-14.1-6.7
			c-1.6-2.3-2.7-5.2-3.5-8.7H5.7z M11.6,10.3c-3.1,4.1-5.2,9.5-6.3,16.3h9.5c0.7-4.5,2-8.2,3.9-10.9c3.1-4.5,7.8-6.8,14.1-6.8
			c2.3,0,4.5,0.4,6.4,1.2c1.9,0.8,3.6,2,5,3.7c1.4,1.6,2.4,3.7,3.1,6.1c0.6,2,0.9,4.2,1.1,6.7H58c-0.2-3.9-0.8-7.3-1.9-10.3
			c-1.3-3.5-3-6.3-5.2-8.6s-4.9-4-8-5.1c-3.1-1.1-6.5-1.7-10.1-1.7C23.5,0.8,16.4,4,11.6,10.3z"/>
		<rect y="30.2" class="st2" width="19.7" height="20"/>
		<rect x="63.2" y="30.2" class="st3" width="19.7" height="20"/>
		<rect x="125" y="30.2" class="st4" width="19.7" height="20"/>
	</g>
</g>
<path class="st0" d="z"/>
</svg>
